<svg xmlns="http://www.w3.org/2000/svg" viewBox="0 0 100 100" width="48px" height="48px"><path fill="#fefdef" d="M61.634,9.307H42.82h-9.105h-2.833h-1.268c-4.803,0-8.732,3.93-8.732,8.732v61.535c0,4.803,3.93,8.732,8.732,8.732h43.535c4.803,0,8.732-3.93,8.732-8.732v-50.02C75.133,22.806,68.384,16.056,61.634,9.307z"/><path fill="#1f212b" d="M73.149,89.307H29.614c-5.366,0-9.732-4.366-9.732-9.732V18.04c0-5.367,4.366-9.732,9.732-9.732h32.021c0.266,0,0.52,0.105,0.707,0.293l20.247,20.248c0.188,0.188,0.293,0.442,0.293,0.707v50.02C82.882,84.941,78.516,89.307,73.149,89.307z M29.614,10.307c-4.264,0-7.732,3.469-7.732,7.732v61.535c0,4.264,3.469,7.732,7.732,7.732h43.535c4.264,0,7.732-3.469,7.732-7.732V29.969L61.221,10.307H29.614z"/><path fill="#fef6aa" d="M61.382,9.807v10.986c0,4.958,4.057,9.014,9.014,9.014h11.986"/><path fill="#1f212b" d="M82.382 30.307H70.397c-5.246 0-9.515-4.268-9.515-9.515V9.807c0-.276.224-.5.5-.5s.5.224.5.5v10.985c0 4.695 3.819 8.515 8.515 8.515h11.985c.276 0 .5.224.5.5S82.658 30.307 82.382 30.307zM76.382 48.307c-.276 0-.5-.224-.5-.5v-3c0-.276.224-.5.5-.5s.5.224.5.5v3C76.882 48.083 76.658 48.307 76.382 48.307zM76.382 56.307c-.276 0-.5-.224-.5-.5v-6c0-.276.224-.5.5-.5s.5.224.5.5v6C76.882 56.083 76.658 56.307 76.382 56.307zM69.224 83.307H33.54c-4.223 0-7.658-3.45-7.658-7.689V22.955c0-2.458 1.193-4.79 3.193-6.238 1.31-.949 2.854-1.451 4.465-1.451.276 0 .5.224.5.5s-.224.5-.5.5c-1.398 0-2.74.436-3.879 1.261-1.74 1.262-2.779 3.291-2.779 5.429v52.663c0 3.688 2.987 6.689 6.658 6.689h35.684c3.671 0 6.658-3.001 6.658-6.689V57.807c0-.276.224-.5.5-.5s.5.224.5.5v17.811C76.882 79.857 73.446 83.307 69.224 83.307z"/><path fill="#f37e98" d="M32.426,81.998c-1.465,0-2.644-0.746-3.152-1.996c-0.847-2.078,0.374-4.936,3.35-7.842c2.33-2.276,5.584-4.149,9.677-5.573c2.177-4.04,4.18-8.366,5.585-12.064c-3.111-4.839-3.685-10.813-2.597-14.151c0.704-2.159,1.923-2.971,2.82-3.272c1.252-0.421,2.53-0.106,3.421,0.852c1.343,1.444,1.835,4.352,1.506,8.89c-0.131,1.809-0.732,4.238-1.79,7.231c0.046,0.058,0.093,0.115,0.14,0.172c0.706,0.863,1.459,1.812,2.248,2.807c1.684,2.123,3.576,4.508,5.5,6.646c0.569-0.018,1.117-0.026,1.646-0.026c6.798,0,11.363,1.422,12.854,4.004c0.636,1.101,0.649,2.34,0.037,3.4c-0.826,1.431-2.613,2.285-4.781,2.285h-0.001c-0.525,0-1.068-0.051-1.613-0.152c-2.732-0.504-5.731-2.56-9.404-6.455c-0.939,0.051-1.922,0.125-2.93,0.223c-2.165,0.208-6.343,0.753-10.573,2.086c-1.82,3.287-5.737,9.926-8.658,11.835C34.606,81.618,33.472,81.998,32.426,81.998z M39.888,70.814c-2.095,1.012-3.824,2.18-5.169,3.493c-2.643,2.582-2.815,4.2-2.667,4.563c0.043,0.105,0.228,0.127,0.374,0.127c0.448,0,1.047-0.223,1.642-0.611C35.374,77.533,37.53,74.702,39.888,70.814z M62.053,66.691c2.264,2.099,4.164,3.272,5.766,3.568c0.366,0.067,0.726,0.102,1.068,0.102c0.001,0,0.001,0,0.001,0c1.188,0,1.965-0.407,2.184-0.785c0.04-0.071,0.097-0.167-0.038-0.4C70.53,68.305,68.074,66.87,62.053,66.691z M50.009,57.316c-1.047,2.574-2.322,5.356-3.708,8.093c3.437-0.851,6.553-1.245,8.352-1.418c0.234-0.022,0.467-0.044,0.698-0.064c-1.431-1.686-2.807-3.42-4.068-5.01C50.847,58.367,50.421,57.831,50.009,57.316z M49.209,39.916c-0.022,0-0.071,0.004-0.146,0.029c-0.338,0.113-0.683,0.621-0.923,1.359c-0.72,2.208-0.434,5.923,1.065,9.346c0.477-1.622,0.762-2.985,0.837-4.023c0.366-5.049-0.451-6.352-0.711-6.63C49.258,39.916,49.231,39.916,49.209,39.916z"/><path fill="#1f212b" d="M32.426 82.498c-1.676 0-3.027-.863-3.614-2.308-.929-2.275.334-5.333 3.463-8.388 2.346-2.291 5.601-4.182 9.678-5.623 2.098-3.909 3.999-8.012 5.377-11.601-3.104-4.975-3.623-10.964-2.516-14.361.769-2.357 2.13-3.254 3.137-3.591 1.442-.483 2.92-.118 3.946.985 1.442 1.551 1.979 4.583 1.639 9.267-.13 1.797-.71 4.183-1.725 7.096.697.853 1.438 1.788 2.215 2.767 1.648 2.077 3.477 4.38 5.326 6.45.491-.013.967-.02 1.429-.02 6.983 0 11.702 1.511 13.286 4.254.728 1.26.741 2.681.037 3.9-.916 1.587-2.865 2.535-5.214 2.535-.558 0-1.131-.054-1.704-.16-2.809-.518-5.837-2.564-9.517-6.435-.862.05-1.76.119-2.678.208-2.074.199-6.141.724-10.282 2.006-2.048 3.682-5.812 9.933-8.725 11.836C34.798 82.09 33.567 82.498 32.426 82.498zM49.193 37.419c-.305 0-.615.051-.925.155-.789.265-1.864.992-2.504 2.953-1.024 3.143-.481 9.022 2.542 13.726.086.134.103.3.047.448-1.42 3.735-3.413 8.041-5.612 12.124-.06.11-.158.194-.276.235-4.023 1.4-7.217 3.237-9.491 5.459-2.823 2.756-4.003 5.415-3.236 7.295.429 1.056 1.434 1.685 2.688 1.685.947 0 1.989-.353 3.013-1.019 2.882-1.883 6.899-8.78 8.493-11.658.062-.112.165-.196.287-.235 4.293-1.353 8.531-1.9 10.676-2.106 1.015-.099 2.004-.173 2.95-.225.144-.005.291.049.392.156 3.6 3.818 6.501 5.822 9.131 6.307 2.572.478 4.951-.299 5.871-1.891.521-.901.507-1.958-.037-2.9-1.398-2.421-5.81-3.754-12.421-3.754-.524 0-1.066.008-1.631.026-.152.015-.288-.056-.388-.165-1.922-2.136-3.816-4.523-5.487-6.629-.819-1.033-1.571-1.98-2.275-2.841l-.144-.177c-.107-.135-.139-.315-.081-.478 1.042-2.95 1.636-5.338 1.763-7.101.319-4.393-.13-7.177-1.373-8.514C50.632 37.721 49.933 37.419 49.193 37.419zM32.426 79.497c-.544 0-.755-.238-.837-.438-.259-.637.036-2.429 2.78-5.11 1.378-1.346 3.162-2.552 5.301-3.586.198-.097.438-.051.588.114.148.164.172.406.058.596-2.443 4.029-4.62 6.848-5.974 7.731C33.655 79.251 32.976 79.497 32.426 79.497zM32.521 78.697h.01H32.521zM38.483 72.123c-1.332.774-2.477 1.625-3.415 2.542-1.993 1.947-2.482 3.283-2.549 3.816.397-.042.838-.229 1.276-.514C34.837 77.287 36.545 75.149 38.483 72.123zM68.888 70.861c-.371 0-.761-.037-1.158-.11-1.708-.316-3.676-1.524-6.017-3.693-.153-.142-.202-.363-.123-.556s.253-.309.478-.311c5.865.175 8.701 1.527 9.399 2.735.248.428.143.715.043.893C71.14 70.455 70.112 70.861 68.888 70.861zM63.452 67.26c1.718 1.436 3.214 2.278 4.458 2.508.338.062.666.093.977.093.938 0 1.497-.278 1.69-.461C70.093 68.709 68.099 67.581 63.452 67.26zM70.624 69.473h.011H70.624zM46.301 65.909c-.15 0-.295-.068-.392-.188-.121-.153-.143-.363-.055-.538 1.38-2.726 2.656-5.511 3.691-8.056.066-.164.216-.281.391-.306.184-.028.353.044.463.182l1.275 1.603c1.229 1.55 2.622 3.307 4.057 4.998.121.143.152.341.082.514-.071.173-.233.292-.42.308L54.7 64.489c-1.939.187-4.95.582-8.279 1.406C46.381 65.904 46.341 65.909 46.301 65.909zM50.148 58.292c-.855 2.047-1.852 4.223-2.921 6.383 2.83-.641 5.364-.98 7.127-1.158-1.226-1.47-2.404-2.957-3.462-4.291L50.148 58.292zM49.205 51.15c-.197 0-.378-.117-.458-.299-1.456-3.324-1.891-7.223-1.083-9.701.173-.529.562-1.452 1.239-1.679.399-.133.667.045.799.191.463.496 1.196 2.073.839 7.001-.078 1.07-.366 2.458-.856 4.128-.059.202-.238.345-.448.358C49.227 51.149 49.216 51.15 49.205 51.15zM49.092 40.528c-.135.146-.317.44-.477.931-.533 1.637-.538 4.503.505 7.588.232-.958.374-1.78.423-2.456C49.841 42.487 49.345 41.002 49.092 40.528zM49.21 39.935L49.21 39.935v-.019V39.935zM55.382 23.307h-24c-.276 0-.5-.224-.5-.5s.224-.5.5-.5h24c.276 0 .5.224.5.5S55.658 23.307 55.382 23.307zM44.382 26.307h-13c-.276 0-.5-.224-.5-.5s.224-.5.5-.5h13c.276 0 .5.224.5.5S44.658 26.307 44.382 26.307zM33.382 29.307h-2c-.276 0-.5-.224-.5-.5s.224-.5.5-.5h2c.276 0 .5.224.5.5S33.658 29.307 33.382 29.307zM37.382 29.307h-2c-.276 0-.5-.224-.5-.5s.224-.5.5-.5h2c.276 0 .5.224.5.5S37.658 29.307 37.382 29.307zM41.382 29.307h-2c-.276 0-.5-.224-.5-.5s.224-.5.5-.5h2c.276 0 .5.224.5.5S41.658 29.307 41.382 29.307z"/></svg>